<svg width="100" height="100" viewBox="0 0 100 100" fill="none" xmlns="http://www.w3.org/2000/svg">
<circle cx="50" cy="50" r="50" fill="white"/>
<circle cx="50" cy="50" r="45.4545" fill="#FFD8B5"/>
<line x1="28.7878" y1="81.4846" x2="71.2121" y2="81.4846" stroke="#31485A" stroke-width="4"/>
<circle cx="44" cy="44" r="27" fill="#E9BFD9"/>
<path d="M44.1156 17.4629C51.2049 17.4629 58.0037 20.2791 63.0166 25.2919C68.0294 30.3048 70.8456 37.1037 70.8456 44.1929C70.8456 51.2821 68.0294 58.081 63.0166 63.0939C58.0037 68.1067 51.2049 70.9229 44.1156 70.9229L44.1156 66.9728C50.1572 66.9728 55.9514 64.5727 60.2234 60.3007C64.4955 56.0286 66.8955 50.2345 66.8955 44.1929C66.8955 38.1513 64.4955 32.3571 60.2234 28.0851C55.9514 23.813 50.1572 21.413 44.1156 21.413L44.1156 17.4629Z" fill="#31485A"/>
<line x1="29.3643" y1="83.3333" x2="29.3643" y2="16.6666" stroke="#31485A" stroke-width="4"/>
</svg>
