<svg width="51" height="46" viewBox="0 0 51 46" fill="none" xmlns="http://www.w3.org/2000/svg">
<path d="M24.033 43C12.4357 43 3 33.5543 3 21.9436C3 13.9022 7.47132 6.67703 14.6697 3.08845C14.9936 2.92755 15.3832 2.98989 15.6382 3.24513C15.8931 3.50038 15.9587 3.8904 15.7997 4.21388C14.4863 6.88594 13.8207 9.75848 13.8207 12.7498C13.8207 23.4321 22.5008 32.1222 33.1709 32.1222C36.1916 32.1222 39.0886 31.4407 41.7837 30.098C42.1085 29.9371 42.4972 29.9994 42.7522 30.2547C43.008 30.5099 43.0728 30.8999 42.9137 31.2234C39.3461 38.4865 32.1107 43 24.033 43ZM13.3057 5.81779C7.93242 9.38615 4.68285 15.368 4.68285 21.9436C4.68285 32.6251 13.363 41.3152 24.033 41.3152C30.6416 41.3152 36.6384 38.0316 40.1942 32.6024C37.9493 33.4027 35.5967 33.807 33.1717 33.807C21.5744 33.807 12.1387 24.3605 12.1387 12.7498C12.1387 10.3574 12.5308 8.0358 13.3057 5.81779Z" fill="white" stroke="#fff" stroke-width="3"/>
</svg>
