<svg width="40" height="40" viewBox="0 0 50 50" fill="none" xmlns="http://www.w3.org/2000/svg">
<g clip-path="url(#clip0_18_61)">
<path d="M25.0022 37.5046C31.9062 37.5046 37.503 31.9078 37.503 25.0038C37.503 18.0998 31.9062 12.5031 25.0022 12.5031C18.0983 12.5031 12.5015 18.0998 12.5015 25.0038C12.5015 31.9078 18.0983 37.5046 25.0022 37.5046Z" fill="white"/>
<path fill-rule="evenodd" clip-rule="evenodd" d="M9.37578 24.9976C9.37578 23.2702 7.97813 21.8726 6.25078 21.8726H3.125C1.39766 21.8726 0 23.2702 0 24.9976C0 26.7249 1.39766 28.1226 3.125 28.1226H6.25C7.97813 28.1226 9.37578 26.7249 9.37578 24.9976Z" fill="white"/>
<path fill-rule="evenodd" clip-rule="evenodd" d="M9.53433 36.0461L7.32183 38.2594C6.10073 39.4797 6.10073 41.4578 7.32183 42.6781C8.54214 43.8984 10.5203 43.8984 11.7414 42.6781L13.9546 40.4656C15.175 39.2453 15.175 37.2664 13.9546 36.0461C12.7328 34.825 10.7554 34.825 9.53433 36.0461Z" fill="white"/>
<path fill-rule="evenodd" clip-rule="evenodd" d="M25.0024 40.6241C23.2751 40.6241 21.8774 42.0218 21.8774 43.7491V46.8749C21.8774 48.6023 23.2751 49.9999 25.0024 49.9999C26.7298 49.9999 28.1274 48.6023 28.1274 46.8749L28.1243 43.7491C28.1274 42.0218 26.7267 40.6241 25.0024 40.6241Z" fill="white"/>
<path fill-rule="evenodd" clip-rule="evenodd" d="M40.4671 36.0492C39.2492 34.8258 37.271 34.8258 36.0507 36.0461C34.8304 37.2664 34.8304 39.2453 36.0507 40.4656L38.2609 42.675C39.4812 43.9015 41.4593 43.8953 42.6796 42.675C43.9 41.4547 43.9031 39.4797 42.6796 38.2562L40.4671 36.0492Z" fill="white"/>
<path fill-rule="evenodd" clip-rule="evenodd" d="M46.8797 21.8726L43.7477 21.8788C42.0266 21.8726 40.6289 23.2702 40.6289 24.9976C40.6227 26.7249 42.0266 28.1226 43.7477 28.1226H46.8735C48.6071 28.1288 49.9985 26.7249 49.9985 24.9976C50.0016 23.2733 48.6071 21.8726 46.8797 21.8726Z" fill="white"/>
<path fill-rule="evenodd" clip-rule="evenodd" d="M40.4671 13.9523L42.6765 11.7421C43.9062 10.5187 43.8968 8.5437 42.6765 7.32261C41.4585 6.09839 39.4812 6.09839 38.2609 7.31948L36.0507 9.53511C34.8304 10.75 34.8304 12.7273 36.0507 13.9484C37.2648 15.1765 39.2492 15.1703 40.4671 13.9523Z" fill="white"/>
<path fill-rule="evenodd" clip-rule="evenodd" d="M25.0024 9.37121C26.7267 9.38371 28.1274 7.97356 28.1274 6.25246V3.12746C28.1274 1.39387 26.7298 0.00246229 25.0024 0.00246229C23.2751 -0.00378771 21.8774 1.39387 21.8774 3.12199L21.8837 6.25324C21.8774 7.97356 23.2751 9.37121 25.0024 9.37121Z" fill="white"/>
<path fill-rule="evenodd" clip-rule="evenodd" d="M9.54058 13.9491C10.7554 15.1695 12.7273 15.1695 13.9515 13.946C15.1812 12.7343 15.175 10.7507 13.9578 9.53274L11.7476 7.32337C10.521 6.09602 8.54917 6.1054 7.32808 7.32337C6.09761 8.54134 6.09761 10.5187 7.3187 11.7398L9.54058 13.9491Z" fill="white"/>
</g>
<defs>
<clipPath id="clip0_18_61">
<rect width="50" height="50" fill="white"/>
</clipPath>
</defs>
</svg>
